<svg width="12" height="14" viewBox="0 0 12 14" fill="none" xmlns="http://www.w3.org/2000/svg">
<path d="M3.33333 8.33325C3.14445 8.33325 2.986 8.26925 2.858 8.14125C2.73 8.01325 2.66622 7.85503 2.66667 7.66659C2.66667 7.4777 2.73067 7.31925 2.85867 7.19125C2.98667 7.06325 3.14489 6.99947 3.33333 6.99992C3.52222 6.99992 3.68067 7.06392 3.80867 7.19192C3.93667 7.31992 4.00045 7.47814 4 7.66659C4 7.85547 3.936 8.01392 3.808 8.14192C3.68 8.26992 3.52178 8.3337 3.33333 8.33325ZM6 8.33325C5.81111 8.33325 5.65267 8.26925 5.52467 8.14125C5.39667 8.01325 5.33289 7.85503 5.33333 7.66659C5.33333 7.4777 5.39734 7.31925 5.52533 7.19125C5.65333 7.06325 5.81156 6.99947 6 6.99992C6.18889 6.99992 6.34733 7.06392 6.47534 7.19192C6.60333 7.31992 6.66711 7.47814 6.66667 7.66659C6.66667 7.85547 6.60267 8.01392 6.47467 8.14192C6.34667 8.26992 6.18845 8.3337 6 8.33325ZM8.66667 8.33325C8.47778 8.33325 8.31933 8.26925 8.19133 8.14125C8.06333 8.01325 7.99956 7.85503 8 7.66659C8 7.4777 8.064 7.31925 8.192 7.19125C8.32 7.06325 8.47822 6.99947 8.66667 6.99992C8.85556 6.99992 9.014 7.06392 9.142 7.19192C9.27 7.31992 9.33378 7.47814 9.33333 7.66659C9.33333 7.85547 9.26933 8.01392 9.14133 8.14192C9.01334 8.26992 8.85511 8.3337 8.66667 8.33325ZM1.33333 13.6666C0.966668 13.6666 0.652668 13.5359 0.391334 13.2746C0.130001 13.0133 -0.000443313 12.6995 1.13186e-06 12.3333V2.99992C1.13186e-06 2.63325 0.130668 2.31925 0.392001 2.05792C0.653334 1.79659 0.967112 1.66614 1.33333 1.66659H2V0.333252H3.33333V1.66659H8.66667V0.333252H10V1.66659H10.6667C11.0333 1.66659 11.3473 1.79725 11.6087 2.05859C11.87 2.31992 12.0004 2.6337 12 2.99992V12.3333C12 12.6999 11.8693 13.0139 11.608 13.2753C11.3467 13.5366 11.0329 13.667 10.6667 13.6666H1.33333ZM1.33333 12.3333H10.6667V5.66659H1.33333V12.3333ZM1.33333 4.33325H10.6667V2.99992H1.33333V4.33325Z" fill="black"/>
</svg>
