<svg width="12" height="12" viewBox="0 0 12 12" fill="none" xmlns="http://www.w3.org/2000/svg">
<path d="M2.66699 12C2.30033 12 1.98633 11.8693 1.72499 11.608C1.46366 11.3467 1.33322 11.0329 1.33366 10.6667V2C1.14477 2 0.986328 1.936 0.858328 1.808C0.730328 1.68 0.66655 1.52178 0.666994 1.33334C0.666994 1.14445 0.730995 0.986002 0.858995 0.858002C0.986995 0.730002 1.14522 0.666225 1.33366 0.666669H4.00033C4.00033 0.47778 4.06433 0.319336 4.19233 0.191336C4.32033 0.0633356 4.47855 -0.000442138 4.66699 2.30681e-06H7.33366C7.52255 2.30681e-06 7.681 0.0640024 7.809 0.192002C7.937 0.320002 8.00077 0.478225 8.00033 0.666669H10.667C10.8559 0.666669 11.0143 0.730669 11.1423 0.858669C11.2703 0.986669 11.3341 1.14489 11.3337 1.33334C11.3337 1.52222 11.2697 1.68067 11.1417 1.80867C11.0137 1.93667 10.8554 2.00045 10.667 2V10.6667C10.667 11.0333 10.5363 11.3473 10.275 11.6087C10.0137 11.87 9.69988 12.0004 9.33366 12H2.66699ZM2.66699 2V10.6667H9.33366V2H2.66699ZM4.00033 8.66667C4.00033 8.85556 4.06433 9.014 4.19233 9.142C4.32033 9.27 4.47855 9.33378 4.66699 9.33334C4.85588 9.33334 5.01433 9.26934 5.14233 9.14134C5.27033 9.01334 5.33411 8.85511 5.33366 8.66667V4C5.33366 3.81111 5.26966 3.65267 5.14166 3.52467C5.01366 3.39667 4.85544 3.33289 4.66699 3.33334C4.47811 3.33334 4.31966 3.39734 4.19166 3.52534C4.06366 3.65334 3.99988 3.81156 4.00033 4V8.66667ZM6.667 8.66667C6.667 8.85556 6.731 9.014 6.85899 9.142C6.98699 9.27 7.14522 9.33378 7.33366 9.33334C7.52255 9.33334 7.681 9.26934 7.809 9.14134C7.937 9.01334 8.00077 8.85511 8.00033 8.66667V4C8.00033 3.81111 7.93633 3.65267 7.80833 3.52467C7.68033 3.39667 7.52211 3.33289 7.33366 3.33334C7.14477 3.33334 6.98633 3.39734 6.85833 3.52534C6.73033 3.65334 6.66655 3.81156 6.667 4V8.66667Z" fill="#2C2C2C"/>
</svg>
