<svg width="13" height="13" viewBox="0 0 13 13" fill="none" xmlns="http://www.w3.org/2000/svg">
<path d="M1.33333 11.6666H2.26667L8.01667 5.91659L7.08333 4.98325L1.33333 10.7333V11.6666ZM10.8667 4.94992L8.03333 2.14992L8.96667 1.21659C9.22222 0.96103 9.53622 0.833252 9.90867 0.833252C10.2811 0.833252 10.5949 0.96103 10.85 1.21659L11.7833 2.14992C12.0389 2.40547 12.1722 2.71392 12.1833 3.07525C12.1944 3.43659 12.0722 3.74481 11.8167 3.99992L10.8667 4.94992ZM9.9 5.93325L2.83333 12.9999H0V10.1666L7.06667 3.09992L9.9 5.93325ZM7.55 5.44992L7.08333 4.98325L8.01667 5.91659L7.55 5.44992Z" fill="#2C2C2C"/>
</svg>
