<svg width="32" height="32" viewBox="0 0 32 32" fill="none" xmlns="http://www.w3.org/2000/svg">
<rect width="32" height="32" fill="white"/>
<path d="M3.84082 8.30958C3.84082 7.88002 4.38964 7.70033 4.64367 8.04673L7.86207 12.4353L8.78039 13.531L10.1917 15.1758L11.0201 16.0866L14.5549 20.2589C14.8621 20.6215 14.4623 21.1484 14.0303 20.9501L4.09984 16.3913C3.94199 16.3188 3.84082 16.161 3.84082 15.9874V12.4346V8.30958Z" fill="#06BEE1"/>
<path d="M5.25257 7.6327C4.95977 7.27194 5.34701 6.76052 5.77368 6.94452L8.13421 7.96252L10.8982 9.14505L12.2583 9.76532L14.4264 10.7899L17.2456 12.1041C17.5582 12.2498 17.5929 12.6806 17.3077 12.8744L12.6456 16.0439C12.4553 16.1733 12.1977 16.136 12.0519 15.9579L7.3699 10.2416L5.25257 7.6327Z" fill="#06BEE1"/>
<path d="M20.2972 9.5143L20.4109 9.68359C20.5302 9.86123 20.5112 10.0803 20.3651 10.2114L20.1448 10.4092L18.6399 11.7132C18.521 11.8163 18.3435 11.8419 18.1798 11.7795L17.8266 11.6451C17.8037 11.6364 17.7813 11.6261 17.7597 11.6142L12.6082 8.78119C12.3622 8.6459 12.2737 8.35074 12.4185 8.14874L15.7666 3.47984C15.9454 3.23053 16.3609 3.27115 16.5411 3.55555L19.5077 8.23634L20.2972 9.5143Z" fill="#06BEE1"/>
<path d="M26.8707 7.54474C27.168 7.35181 27.6089 7.59065 27.6143 7.94754L27.6523 10.4478L27.6524 13.0213V15.6524C27.6524 15.8078 27.5626 15.9419 27.4176 16.0031L21.2944 18.5842L16.6809 20.6325C16.4915 20.7166 16.2507 20.6555 16.1064 20.4867L13.7353 17.7127C13.5718 17.5215 13.5871 17.258 13.7698 17.1189L18.9405 13.1832L23.2173 9.91559L26.8707 7.54474Z" fill="#06BEE1"/>
<path d="M14.3966 21.9718L14.8677 22.2243C15.0291 22.3107 15.1322 22.4726 15.1322 22.6391V22.8513V27.1581C15.1322 27.4597 14.808 27.6344 14.5079 27.4945L11.604 26.1408L4.14995 22.9818C3.96554 22.9037 3.84184 22.7287 3.84184 22.5461L3.8418 17.9759C3.84179 17.6798 4.15501 17.5044 4.45302 17.6336L13.5947 21.5962L14.3966 21.9718Z" fill="#06BEE1"/>
<path d="M16.3906 21.9896L15.9899 22.1751L15.7439 22.3201C15.6267 22.3892 15.5576 22.5104 15.5576 22.6466L15.5578 22.9233L15.5602 27.1811C15.5604 27.5147 15.9501 27.7591 16.255 27.6168L19.1418 26.2696L26.7861 23.0266C26.9307 22.9652 27.0202 22.8312 27.0202 22.6761L27.0176 18.0899C27.0174 17.7611 26.6379 17.517 26.3329 17.6496L17.0317 21.6914L16.3906 21.9896Z" fill="#06BEE1"/>
</svg>
