<svg width="16" height="16" viewBox="0 0 16 16" fill="none" xmlns="http://www.w3.org/2000/svg">
<path d="M8.2552 0.5C3.99433 0.5 0.543945 3.86 0.543945 8C0.543945 12.14 3.99433 15.5 8.2552 15.5C12.5238 15.5 15.9819 12.14 15.9819 8C15.9819 3.86 12.5238 0.5 8.2552 0.5ZM8.26292 14C4.85113 14 2.08774 11.315 2.08774 8C2.08774 4.685 4.85113 2 8.26292 2C11.6747 2 14.4381 4.685 14.4381 8C14.4381 11.315 11.6747 14 8.26292 14ZM8.64887 4.25H7.49103V8.75L11.5435 11.1125L12.1224 10.19L8.64887 8.1875V4.25Z" fill="#2C2C2C"/>
</svg>
